<svg width="589" height="294" xmlns="http://www.w3.org/2000/svg" xmlns:xlink="http://www.w3.org/1999/xlink" xml:space="preserve" overflow="hidden"><defs><clipPath id="clip0"><rect x="0" y="0" width="589" height="294"/></clipPath><linearGradient x1="439.673" y1="123.74" x2="439.653" y2="101.116" gradientUnits="userSpaceOnUse" spreadMethod="pad" id="fill1"><stop offset="0" stop-color="#FFFFFF"/><stop offset="1" stop-color="#EEEEEE"/></linearGradient><linearGradient x1="418.437" y1="142.793" x2="418.407" y2="120.17" gradientUnits="userSpaceOnUse" spreadMethod="pad" id="fill2"><stop offset="0" stop-color="#FFFFFF"/><stop offset="1" stop-color="#EEEEEE"/></linearGradient><linearGradient x1="195.747" y1="259.374" x2="195.498" y2="204.056" gradientUnits="userSpaceOnUse" spreadMethod="pad" id="fill3"><stop offset="0" stop-color="#FFFFFF"/><stop offset="1" stop-color="#EEEEEE"/></linearGradient><linearGradient x1="195.747" y1="311.016" x2="195.498" y2="255.697" gradientUnits="userSpaceOnUse" spreadMethod="pad" id="fill4"><stop offset="0" stop-color="#FFFFFF"/><stop offset="1" stop-color="#EEEEEE"/></linearGradient><linearGradient x1="184.661" y1="285.194" x2="184.25" y2="229.878" gradientUnits="userSpaceOnUse" spreadMethod="pad" id="fill5"><stop offset="0" stop-color="#FFFFFF"/><stop offset="1" stop-color="#EEEEEE"/></linearGradient><linearGradient x1="228.328" y1="285.194" x2="227.917" y2="229.878" gradientUnits="userSpaceOnUse" spreadMethod="pad" id="fill6"><stop offset="0" stop-color="#FFFFFF"/><stop offset="1" stop-color="#EEEEEE"/></linearGradient><linearGradient x1="271.996" y1="285.194" x2="271.585" y2="229.878" gradientUnits="userSpaceOnUse" spreadMethod="pad" id="fill7"><stop offset="0" stop-color="#FFFFFF"/><stop offset="1" stop-color="#EEEEEE"/></linearGradient><linearGradient x1="261.818" y1="259.374" x2="261.568" y2="204.056" gradientUnits="userSpaceOnUse" spreadMethod="pad" id="fill8"><stop offset="0" stop-color="#FFFFFF"/><stop offset="1" stop-color="#EEEEEE"/></linearGradient><linearGradient x1="261.818" y1="311.016" x2="261.568" y2="255.697" gradientUnits="userSpaceOnUse" spreadMethod="pad" id="fill9"><stop offset="0" stop-color="#FFFFFF"/><stop offset="1" stop-color="#EEEEEE"/></linearGradient><linearGradient x1="337.705" y1="313.242" x2="335.356" y2="111.639" gradientUnits="userSpaceOnUse" spreadMethod="pad" id="fill10"><stop offset="0" stop-color="#FFFFFF"/><stop offset="1" stop-color="#EEEEEE"/></linearGradient><linearGradient x1="408.498" y1="228.363" x2="408.248" y2="173.044" gradientUnits="userSpaceOnUse" spreadMethod="pad" id="fill11"><stop offset="0" stop-color="#FFFFFF"/><stop offset="1" stop-color="#EEEEEE"/></linearGradient><linearGradient x1="408.498" y1="280.004" x2="408.248" y2="224.686" gradientUnits="userSpaceOnUse" spreadMethod="pad" id="fill12"><stop offset="0" stop-color="#FFFFFF"/><stop offset="1" stop-color="#EEEEEE"/></linearGradient><linearGradient x1="397.413" y1="254.184" x2="397" y2="198.867" gradientUnits="userSpaceOnUse" spreadMethod="pad" id="fill13"><stop offset="0" stop-color="#FFFFFF"/><stop offset="1" stop-color="#EEEEEE"/></linearGradient><linearGradient x1="441.08" y1="254.184" x2="440.668" y2="198.867" gradientUnits="userSpaceOnUse" spreadMethod="pad" id="fill14"><stop offset="0" stop-color="#FFFFFF"/><stop offset="1" stop-color="#EEEEEE"/></linearGradient><linearGradient x1="484.747" y1="254.184" x2="484.335" y2="198.867" gradientUnits="userSpaceOnUse" spreadMethod="pad" id="fill15"><stop offset="0" stop-color="#FFFFFF"/><stop offset="1" stop-color="#EEEEEE"/></linearGradient><linearGradient x1="474.569" y1="228.363" x2="474.319" y2="173.044" gradientUnits="userSpaceOnUse" spreadMethod="pad" id="fill16"><stop offset="0" stop-color="#FFFFFF"/><stop offset="1" stop-color="#EEEEEE"/></linearGradient><linearGradient x1="474.569" y1="280.004" x2="474.319" y2="224.686" gradientUnits="userSpaceOnUse" spreadMethod="pad" id="fill17"><stop offset="0" stop-color="#FFFFFF"/><stop offset="1" stop-color="#EEEEEE"/></linearGradient><linearGradient x1="210.892" y1="133.886" x2="210.643" y2="78.568" gradientUnits="userSpaceOnUse" spreadMethod="pad" id="fill18"><stop offset="0" stop-color="#FFFFFF"/><stop offset="1" stop-color="#EEEEEE"/></linearGradient><linearGradient x1="210.892" y1="185.528" x2="210.643" y2="130.209" gradientUnits="userSpaceOnUse" spreadMethod="pad" id="fill19"><stop offset="0" stop-color="#FFFFFF"/><stop offset="1" stop-color="#EEEEEE"/></linearGradient><linearGradient x1="199.806" y1="159.707" x2="199.395" y2="104.39" gradientUnits="userSpaceOnUse" spreadMethod="pad" id="fill20"><stop offset="0" stop-color="#FFFFFF"/><stop offset="1" stop-color="#EEEEEE"/></linearGradient><linearGradient x1="243.474" y1="159.707" x2="243.062" y2="104.39" gradientUnits="userSpaceOnUse" spreadMethod="pad" id="fill21"><stop offset="0" stop-color="#FFFFFF"/><stop offset="1" stop-color="#EEEEEE"/></linearGradient><linearGradient x1="287.141" y1="159.707" x2="286.73" y2="104.39" gradientUnits="userSpaceOnUse" spreadMethod="pad" id="fill22"><stop offset="0" stop-color="#FFFFFF"/><stop offset="1" stop-color="#EEEEEE"/></linearGradient><linearGradient x1="276.963" y1="133.886" x2="276.714" y2="78.568" gradientUnits="userSpaceOnUse" spreadMethod="pad" id="fill23"><stop offset="0" stop-color="#FFFFFF"/><stop offset="1" stop-color="#EEEEEE"/></linearGradient><linearGradient x1="276.963" y1="185.528" x2="276.714" y2="130.209" gradientUnits="userSpaceOnUse" spreadMethod="pad" id="fill24"><stop offset="0" stop-color="#FFFFFF"/><stop offset="1" stop-color="#EEEEEE"/></linearGradient></defs><g clip-path="url(#clip0)"><path d="M499.345 88.8323C507.314 88.8323 513.774 95.2925 513.774 103.262L513.774 145.623C513.774 153.592 507.314 160.052 499.345 160.052L340.049 160.052C332.08 160.052 325.619 153.592 325.619 145.623L325.619 103.262C325.619 95.2925 332.08 88.8323 340.049 88.8323Z" stroke="#E1E4E5" stroke-width="1.51897" fill="#FFFFFF" transform="matrix(1 0 0 1.00034 0 -48.0003)"/><path d="M490.753 110.411C493.111 110.411 495.023 112.323 495.023 114.681L495.023 114.682C495.023 117.04 493.111 118.952 490.753 118.952L383.661 118.952C381.303 118.952 379.391 117.04 379.391 114.682L379.391 114.681C379.391 112.323 381.303 110.411 383.661 110.411Z" fill="url(#fill1)" transform="matrix(1 0 0 1.00034 0 -48.0003)"/><path d="M450.019 129.464C452.377 129.464 454.289 131.375 454.289 133.734L454.289 133.734C454.289 136.093 452.377 138.005 450.019 138.005L383.661 138.005C381.303 138.005 379.391 136.093 379.391 133.734L379.391 133.734C379.391 131.375 381.303 129.464 383.661 129.464Z" fill="url(#fill2)" transform="matrix(1 0 0 1.00034 0 -48.0003)"/><path d="M354.92 142.778C344.866 142.778 336.715 134.512 336.715 124.316 336.715 114.121 344.866 105.854 354.92 105.854 364.974 105.854 373.125 114.121 373.125 124.316 373.125 134.512 364.974 142.778 354.92 142.778Z" fill="#F7DF1E" fill-rule="evenodd" transform="matrix(1 0 0 1.00034 0 -48.0003)"/><path d="M361.331 121.239 353.64 129.445 349.022 124.522" stroke="#FFFFFF" stroke-width="2.86712" stroke-linecap="round" stroke-linejoin="round" fill="none" transform="matrix(1 0 0 1.00034 0 -48.0003)"/><path d="M300.705 212.33 300.705 298.252C300.705 304.529 295.617 309.605 289.342 309.605L86.7296 309.605C80.4541 309.605 75.3658 304.529 75.3658 298.252L75.3658 212.33C75.3658 206.051 80.4554 200.96 86.7296 200.96L289.342 200.96C295.616 200.96 300.705 206.051 300.705 212.33Z" stroke="#E1E4E5" stroke-width="1.51897" fill="#FFFFFF" transform="matrix(1 0 0 1.00034 0 -48.0003)"/><path d="M153.175 301.576 93.4887 301.576C88.9698 301.576 85.2944 297.898 85.2944 293.377L85.2944 233.655C85.2944 229.134 88.9698 225.456 93.4887 225.456L153.175 225.456C157.693 225.456 161.369 229.134 161.369 233.655L161.369 293.377C161.369 297.915 157.693 301.576 153.175 301.576Z" fill="#F7DF1E" transform="matrix(1 0 0 1.00034 0 -48.0003)"/><path d="M300.705 212.33C300.705 213.904 299.429 215.181 297.854 215.181L78.2172 215.181C76.6427 215.181 75.3662 213.904 75.3658 212.33 75.3658 206.051 80.4554 200.96 86.7296 200.96L289.342 200.96C295.616 200.96 300.705 206.051 300.705 212.33Z" stroke="#E1E4E5" stroke-width="1.51897" fill="#FFFFFF" transform="matrix(1 0 0 1.00034 0 -48.0003)"/><path d="M90.0051 208.35C90.0026 209.618 88.9755 210.645 87.7073 210.649 86.4392 210.645 85.4121 209.618 85.4096 208.35 85.4117 207.082 86.4373 206.055 87.7047 206.05 88.9776 206.066 90.0051 207.089 90.0051 208.35ZM98.8846 208.349C98.8824 209.617 97.8553 210.645 96.5868 210.649 95.3187 210.645 94.2919 209.617 94.2897 208.349 94.2919 207.082 95.3172 206.055 96.5842 206.05 97.8571 206.065 98.8846 207.089 98.8846 208.349ZM107.764 208.349C107.762 209.617 106.735 210.645 105.466 210.649 104.198 210.645 103.171 209.617 103.169 208.349 103.171 207.082 104.197 206.055 105.464 206.05 106.752 206.065 107.764 207.087 107.764 208.349Z" stroke="#E1E4E5" stroke-width="1.03599" fill="#E1E4E5" transform="matrix(1 0 0 1.00034 0 -48.0003)"/><path d="M211.115 226.781C216.882 226.781 221.557 231.456 221.557 237.223L221.557 237.223C221.557 242.99 216.882 247.665 211.115 247.665L178.08 247.665C172.312 247.665 167.637 242.99 167.637 237.223L167.637 237.223C167.637 231.456 172.312 226.781 178.08 226.781Z" fill="url(#fill3)" transform="matrix(1 0 0 1.00034 0 -48.0003)"/><path d="M211.115 278.422C216.882 278.422 221.557 283.097 221.557 288.864L221.557 288.864C221.557 294.631 216.882 299.306 211.115 299.306L178.08 299.306C172.312 299.306 167.637 294.631 167.637 288.864L167.637 288.864C167.637 283.097 172.312 278.422 178.08 278.422Z" fill="url(#fill4)" transform="matrix(1 0 0 1.00034 0 -48.0003)"/><path d="M189.85 252.601C195.618 252.601 200.293 257.276 200.293 263.043L200.293 263.043C200.293 268.811 195.618 273.486 189.85 273.486L178.08 273.486C172.312 273.486 167.637 268.811 167.637 263.043L167.637 263.043C167.637 257.276 172.312 252.601 178.08 252.601Z" fill="url(#fill5)" transform="matrix(1 0 0 1.00034 0 -48.0003)"/><path d="M233.518 252.601C239.285 252.601 243.96 257.276 243.96 263.043L243.96 263.043C243.96 268.811 239.285 273.486 233.518 273.486L221.747 273.486C215.98 273.486 211.304 268.811 211.304 263.043L211.304 263.043C211.304 257.276 215.98 252.601 221.747 252.601Z" fill="url(#fill6)" transform="matrix(1 0 0 1.00034 0 -48.0003)"/><path d="M277.185 252.601C282.953 252.601 287.628 257.276 287.628 263.043L287.628 263.043C287.628 268.811 282.953 273.486 277.185 273.486L265.415 273.486C259.647 273.486 254.972 268.811 254.972 263.043L254.972 263.043C254.972 257.276 259.647 252.601 265.415 252.601Z" fill="url(#fill7)" transform="matrix(1 0 0 1.00034 0 -48.0003)"/><path d="M277.185 226.781C282.953 226.781 287.628 231.456 287.628 237.223L287.628 237.223C287.628 242.99 282.953 247.665 277.185 247.665L244.15 247.665C238.383 247.665 233.708 242.99 233.708 237.223L233.708 237.223C233.708 231.456 238.383 226.781 244.15 226.781Z" fill="url(#fill8)" transform="matrix(1 0 0 1.00034 0 -48.0003)"/><path d="M277.185 278.422C282.953 278.422 287.628 283.097 287.628 288.864L287.628 288.864C287.628 294.631 282.953 299.306 277.185 299.306L244.15 299.306C238.383 299.306 233.708 294.631 233.708 288.864L233.708 288.864C233.708 283.097 238.383 278.422 244.15 278.422Z" fill="url(#fill9)" transform="matrix(1 0 0 1.00034 0 -48.0003)"/><path d="M110.393 271.95 101.771 263.327 110.393 254.705M136.261 254.705 144.884 263.327 136.261 271.95M126.674 250.394 119.487 276.262" stroke="#FFFFFF" stroke-width="6.14458" stroke-linecap="round" stroke-linejoin="round" fill="none" transform="matrix(1 0 0 1.00034 0 -48.0003)"/><path d="M513.457 181.319 513.457 267.24C513.457 273.518 508.369 278.594 502.094 278.594L299.481 278.594C293.206 278.594 288.118 273.518 288.118 267.24L288.118 181.319C288.118 175.04 293.207 169.948 299.481 169.948L502.094 169.948C508.367 169.948 513.457 175.04 513.457 181.319Z" stroke="#E1E4E5" stroke-width="1.51897" fill="#FFFFFF" transform="matrix(1 0 0 1.00034 0 -48.0003)"/><path d="M365.926 270.565 306.24 270.565C301.721 270.565 298.046 266.887 298.046 262.365L298.046 202.644C298.046 198.123 301.721 194.445 306.24 194.445L365.926 194.445C370.444 194.445 374.12 198.123 374.12 202.644L374.12 262.365C374.12 266.904 370.444 270.565 365.926 270.565Z" fill="url(#fill10)" transform="matrix(1 0 0 1.00034 0 -48.0003)"/><path d="M513.457 181.319C513.456 182.893 512.18 184.169 510.606 184.17L290.969 184.17C289.394 184.17 288.118 182.893 288.118 181.319 288.118 175.04 293.207 169.948 299.481 169.948L502.094 169.948C508.367 169.948 513.457 175.04 513.457 181.319Z" stroke="#E1E4E5" stroke-width="1.51897" fill="#FFFFFF" transform="matrix(1 0 0 1.00034 0 -48.0003)"/><path d="M302.756 177.338C302.754 178.606 301.727 179.634 300.459 179.637 299.191 179.634 298.164 178.606 298.161 177.338 298.163 176.071 299.188 175.043 300.455 175.038 301.729 175.054 302.756 176.078 302.756 177.338ZM311.636 177.337C311.634 178.606 310.607 179.634 309.338 179.637 308.07 179.634 307.043 178.606 307.04 177.337 307.043 176.07 308.068 175.043 309.336 175.038 310.609 175.053 311.636 176.078 311.636 177.337ZM320.516 177.337C320.513 178.606 319.486 179.634 318.218 179.637 316.95 179.634 315.923 178.606 315.921 177.337 315.923 176.071 316.948 175.043 318.215 175.038 319.503 175.053 320.516 176.076 320.516 177.337Z" stroke="#E1E4E5" stroke-width="1.03599" fill="#E1E4E5" transform="matrix(1 0 0 1.00034 0 -48.0003)"/><path d="M423.866 195.769C429.633 195.769 434.308 200.444 434.308 206.212L434.308 206.212C434.308 211.979 429.633 216.654 423.866 216.654L390.831 216.654C385.064 216.654 380.389 211.979 380.389 206.212L380.389 206.212C380.389 200.444 385.064 195.769 390.831 195.769Z" fill="url(#fill11)" transform="matrix(1 0 0 1.00034 0 -48.0003)"/><path d="M423.866 247.411C429.633 247.411 434.308 252.086 434.308 257.853L434.308 257.853C434.308 263.62 429.633 268.295 423.866 268.295L390.831 268.295C385.064 268.295 380.389 263.62 380.389 257.853L380.389 257.853C380.389 252.086 385.064 247.411 390.831 247.411Z" fill="url(#fill12)" transform="matrix(1 0 0 1.00034 0 -48.0003)"/><path d="M402.602 221.59C408.369 221.59 413.044 226.265 413.044 232.032L413.044 232.032C413.044 237.799 408.369 242.474 402.602 242.474L390.831 242.474C385.064 242.474 380.389 237.799 380.389 232.032L380.389 232.032C380.389 226.265 385.064 221.59 390.831 221.59Z" fill="url(#fill13)" transform="matrix(1 0 0 1.00034 0 -48.0003)"/><path d="M446.269 221.59C452.036 221.59 456.711 226.265 456.711 232.032L456.711 232.032C456.711 237.799 452.036 242.474 446.269 242.474L434.498 242.474C428.731 242.474 424.056 237.799 424.056 232.032L424.056 232.032C424.056 226.265 428.731 221.59 434.498 221.59Z" fill="url(#fill14)" transform="matrix(1 0 0 1.00034 0 -48.0003)"/><path d="M489.936 221.59C495.703 221.59 500.378 226.265 500.378 232.032L500.378 232.032C500.378 237.799 495.703 242.474 489.936 242.474L478.165 242.474C472.398 242.474 467.723 237.799 467.723 232.032L467.723 232.032C467.723 226.265 472.398 221.59 478.165 221.59Z" fill="url(#fill15)" transform="matrix(1 0 0 1.00034 0 -48.0003)"/><path d="M489.937 195.769C495.704 195.769 500.379 200.444 500.379 206.212L500.379 206.212C500.379 211.979 495.704 216.654 489.937 216.654L456.902 216.654C451.135 216.654 446.459 211.979 446.459 206.212L446.459 206.212C446.459 200.444 451.135 195.769 456.902 195.769Z" fill="url(#fill16)" transform="matrix(1 0 0 1.00034 0 -48.0003)"/><path d="M489.937 247.411C495.704 247.411 500.379 252.086 500.379 257.853L500.379 257.853C500.379 263.62 495.704 268.295 489.937 268.295L456.902 268.295C451.135 268.295 446.459 263.62 446.459 257.853L446.459 257.853C446.459 252.086 451.135 247.411 456.902 247.411Z" fill="url(#fill17)" transform="matrix(1 0 0 1.00034 0 -48.0003)"/><path d="M323.144 240.938 314.521 232.316 323.144 223.693M349.013 223.693 357.636 232.316 349.013 240.938M339.424 219.383 332.237 245.25" stroke="#FFFFFF" stroke-width="6.14458" stroke-linecap="round" stroke-linejoin="round" fill="none" transform="matrix(1 0 0 1.00034 0 -48.0003)"/><path d="M315.85 86.8428 315.85 172.764C315.85 179.042 310.762 184.118 304.487 184.118L101.874 184.118C95.5993 184.118 90.511 179.042 90.511 172.764L90.511 86.8428C90.511 80.5641 95.6006 75.4718 101.874 75.4718L304.487 75.4718C310.761 75.4718 315.85 80.5641 315.85 86.8428Z" stroke="#E1E4E5" stroke-width="1.51897" fill="#FFFFFF" transform="matrix(1 0 0 1.00034 0 -48.0003)"/><path d="M168.32 176.088 108.634 176.088C104.115 176.088 100.44 172.411 100.44 167.889L100.44 108.167C100.44 103.646 104.115 99.9684 108.634 99.9684L168.32 99.9684C172.838 99.9684 176.514 103.646 176.514 108.167L176.514 167.889C176.514 172.428 172.838 176.088 168.32 176.088Z" fill="#F7DF1E" transform="matrix(1 0 0 1.00034 0 -48.0003)"/><path d="M315.85 86.8428C315.85 88.4172 314.574 89.6936 312.999 89.6936L93.3617 89.6936C91.7875 89.6932 90.5113 88.4171 90.511 86.8428 90.511 80.5641 95.6006 75.4718 101.874 75.4718L304.487 75.4718C310.761 75.4718 315.85 80.5641 315.85 86.8428Z" stroke="#E1E4E5" stroke-width="1.51897" fill="#FFFFFF" transform="matrix(1 0 0 1.00034 0 -48.0003)"/><path d="M105.15 82.8612C105.148 84.1296 104.121 85.1576 102.852 85.1609 101.584 85.1576 100.557 84.1296 100.555 82.8612 100.557 81.594 101.583 80.5668 102.85 80.5621 104.123 80.5778 105.15 81.6014 105.15 82.8612ZM114.03 82.8618C114.028 84.13 113.001 85.1577 111.733 85.1609 110.464 85.1577 109.437 84.13 109.435 82.8618 109.437 81.5947 110.462 80.5671 111.729 80.5621 113.003 80.5778 114.03 81.6014 114.03 82.8618ZM122.909 82.8618C122.907 84.13 121.88 85.1577 120.611 85.1609 119.344 85.1573 118.317 84.1298 118.314 82.8618 118.317 81.5947 119.342 80.5671 120.609 80.5621 121.897 80.5778 122.909 81.5994 122.909 82.8618Z" stroke="#E1E4E5" stroke-width="1.03599" fill="#E1E4E5" transform="matrix(1 0 0 1.00034 0 -48.0003)"/><path d="M226.26 101.293C232.027 101.293 236.702 105.968 236.702 111.735L236.702 111.735C236.702 117.502 232.027 122.178 226.26 122.178L193.225 122.178C187.458 122.178 182.782 117.502 182.782 111.735L182.782 111.735C182.782 105.968 187.458 101.293 193.225 101.293Z" fill="url(#fill18)" transform="matrix(1 0 0 1.00034 0 -48.0003)"/><path d="M226.26 152.935C232.027 152.935 236.702 157.61 236.702 163.377L236.702 163.377C236.702 169.144 232.027 173.819 226.26 173.819L193.225 173.819C187.458 173.819 182.782 169.144 182.782 163.377L182.782 163.377C182.782 157.61 187.458 152.935 193.225 152.935Z" fill="url(#fill19)" transform="matrix(1 0 0 1.00034 0 -48.0003)"/><path d="M204.996 127.113C210.763 127.113 215.438 131.789 215.438 137.556L215.438 137.556C215.438 143.323 210.763 147.998 204.996 147.998L193.225 147.998C187.458 147.998 182.782 143.323 182.782 137.556L182.782 137.556C182.782 131.789 187.458 127.113 193.225 127.113Z" fill="url(#fill20)" transform="matrix(1 0 0 1.00034 0 -48.0003)"/><path d="M248.663 127.113C254.43 127.113 259.106 131.789 259.106 137.556L259.106 137.556C259.106 143.323 254.43 147.998 248.663 147.998L236.893 147.998C231.125 147.998 226.45 143.323 226.45 137.556L226.45 137.556C226.45 131.789 231.125 127.113 236.893 127.113Z" fill="url(#fill21)" transform="matrix(1 0 0 1.00034 0 -48.0003)"/><path d="M292.331 127.113C298.098 127.113 302.773 131.789 302.773 137.556L302.773 137.556C302.773 143.323 298.098 147.998 292.331 147.998L280.56 147.998C274.793 147.998 270.117 143.323 270.117 137.556L270.117 137.556C270.117 131.789 274.793 127.113 280.56 127.113Z" fill="url(#fill22)" transform="matrix(1 0 0 1.00034 0 -48.0003)"/><path d="M292.331 101.293C298.098 101.293 302.773 105.968 302.773 111.735L302.773 111.735C302.773 117.502 298.098 122.178 292.331 122.178L259.295 122.178C253.528 122.178 248.853 117.502 248.853 111.735L248.853 111.735C248.853 105.968 253.528 101.293 259.295 101.293Z" fill="url(#fill23)" transform="matrix(1 0 0 1.00034 0 -48.0003)"/><path d="M292.331 152.935C298.098 152.935 302.773 157.61 302.773 163.377L302.773 163.377C302.773 169.144 298.098 173.819 292.331 173.819L259.295 173.819C253.528 173.819 248.853 169.144 248.853 163.377L248.853 163.377C248.853 157.61 253.528 152.935 259.295 152.935Z" fill="url(#fill24)" transform="matrix(1 0 0 1.00034 0 -48.0003)"/><path d="M125.538 146.462 116.916 137.84 125.538 129.217M151.406 129.217 160.029 137.84 151.406 146.462M141.819 124.906 134.632 150.774" stroke="#FFFFFF" stroke-width="6.14458" stroke-linecap="round" stroke-linejoin="round" fill="none" transform="matrix(1 0 0 1.00034 0 -48.0003)"/><path d="M274.139 204.956 282.999 202.261 321.515 201.127 330.202 203.498 329.068 224.665 309.417 237.203 290.355 236.822 278.373 225.903 275.712 215.077 274.139 204.956Z" fill="#F8AE9D" transform="matrix(1 0 0 1.00034 0 -48.0003)"/><path d="M385.34 238.995C382.552 233.247 379.881 228.632 377.498 224.988 372.82 217.809 365.665 212.602 357.395 210.357L325.981 201.844C325.981 201.844 324.35 233.235 302.743 233.235 281.137 233.235 276.927 203.799 276.927 203.799L240.573 218.303C239.324 218.789 230.892 221.704 221.084 242.743 211.738 262.776 207.655 273.036 207.655 273.036L245.107 283.851 247.443 317.533 246.646 336.767 360.321 336.513 359.685 314.525 360.16 280.808 361.583 283.11 399.417 267.935C399.417 267.935 394.547 257.941 385.34 238.995Z" fill="#F7DF1E" transform="matrix(1 0 0 1.00034 0 -48.0003)"/><path d="M299.073 216.154C308.292 215.985 318.766 198.001 318.766 198.001L319.368 151.806C319.849 138.501 311.573 127.164 296.655 127.102L295.27 127.164C281.386 127.826 270.39 137.883 270.019 150.275 269.668 161.808 269.458 174.549 269.909 180.705 270.852 193.447 285.389 191.296 285.389 191.296 285.419 191.296 285.349 197.714 285.389 201.464 285.499 209.883 295.371 216.441 299.073 216.154Z" fill="#F8AE9D" transform="matrix(1 0 0 1.00034 0 -48.0003)"/><path d="M314.761 154.34C315.015 154.219 324.945 150.902 325.167 160.711 325.389 170.521 314.993 168.712 314.972 168.43 314.951 168.149 314.761 154.34 314.761 154.34ZM210.882 273.973 195.649 304.544C193.947 307.959 193.15 311.755 193.335 315.567 193.914 327.434 203.711 336.768 215.59 336.768L259.632 336.076 261.185 314.305 227.943 306.29 240.538 282.475 210.882 273.973ZM397.485 268.711C397.485 268.711 406.935 296.783 417.241 322.298 417.449 322.807 417.68 323.756 417.865 324.277 420.19 330.603 413.193 336.768 406.125 336.768L346.569 336.664 346.569 317.302 383.617 309.436 370.2 279.641 397.485 268.711Z" fill="#F8AE9D" transform="matrix(1 0 0 1.00034 0 -48.0003)"/><path d="M278.118 316.411C278.129 316.48 279.482 316.052 281.738 315.913 283.982 315.763 287.163 316.017 290.332 317.371 293.501 318.724 295.895 320.841 297.33 322.564 298.787 324.288 299.412 325.571 299.47 325.525 299.493 325.513 299.354 325.19 299.042 324.635 298.595 323.853 298.088 323.106 297.526 322.402 296.115 320.609 293.709 318.411 290.471 317.035 287.232 315.659 283.982 315.428 281.715 315.659 280.817 315.737 279.928 315.887 279.054 316.11 278.442 316.26 278.106 316.387 278.118 316.411ZM280.153 311.726C280.177 311.819 281.553 311.137 283.924 311.067 286.284 310.963 289.603 311.68 292.704 313.553 295.803 315.439 298.128 317.822 299.77 319.534 300.557 320.366 301.205 321.061 301.713 321.593 302.176 322.078 302.431 322.345 302.454 322.321 302.477 322.309 302.245 322.009 301.817 321.5 301.215 320.774 300.598 320.061 299.967 319.36 298.359 317.602 296.046 315.161 292.888 313.241 289.73 311.333 286.319 310.639 283.912 310.813 282.71 310.882 281.749 311.102 281.113 311.321 280.789 311.414 280.558 311.529 280.397 311.599 280.234 311.669 280.153 311.715 280.153 311.726Z" fill="#EB996E" transform="matrix(1 0 0 1.00034 0 -48.0003)"/><path d="M359.095 313.75 350.547 313.75C350.547 313.75 331.254 306.775 327.287 307.446 323.713 308.048 310.631 316.734 308.063 318.457 307.774 318.654 307.566 318.92 307.439 319.244 306.916 320.658 307.606 322.233 309.001 322.807L309.266 322.923 309.151 323.315C308.998 323.821 308.931 324.349 308.954 324.877 309.046 326.716 311.522 327.271 312.459 325.687L311.961 326.566C311.762 326.922 311.665 327.326 311.684 327.734L311.73 328.532C311.78 329.416 312.368 330.178 313.211 330.452 314.009 330.718 314.89 330.486 315.455 329.862 317.108 328.034 320.694 324.379 323.123 323.975 325.275 323.616 328.871 323.57 331.046 323.582 332.149 323.583 333.138 324.264 333.533 325.294 332.098 325.398 322.07 330.625 318.519 332.499 317.421 333.078 316.599 334.119 316.461 335.356 316.334 336.467 316.889 337.635 319.086 337.114 323.805 336.015 332.284 332.117 332.284 332.117 332.284 332.117 336.656 330.868 339.49 332.869 343.48 335.68 345.308 336.71 348.731 335.576 352.155 334.443 354.677 332.812 354.677 332.812L361.42 332.141C361.443 332.141 367.816 316.202 359.095 313.75Z" fill="#F8AE9D" transform="matrix(1 0 0 1.00034 0 -48.0003)"/><path d="M333.614 317.012C333.602 317.081 332.249 316.654 329.993 316.514 327.749 316.364 324.568 316.619 321.4 317.972 318.23 319.325 315.836 321.442 314.402 323.165 312.944 324.888 312.32 326.172 312.262 326.126 312.239 326.115 312.377 325.791 312.69 325.235 313.136 324.453 313.643 323.707 314.205 323.003 315.616 321.211 318.022 319.013 321.26 317.637 324.499 316.26 327.749 316.029 330.017 316.26 331.15 316.364 332.064 316.549 332.676 316.711 333.29 316.873 333.625 316.989 333.614 317.012ZM331.578 312.328C331.555 312.42 330.178 311.737 327.807 311.668 325.447 311.564 322.128 312.281 319.028 314.155 315.928 316.04 313.603 318.423 311.961 320.135 311.175 320.968 310.527 321.661 310.018 322.193 309.555 322.68 309.301 322.945 309.277 322.923 309.254 322.911 309.485 322.61 309.913 322.101 310.341 321.581 310.966 320.852 311.764 319.961 313.372 318.203 315.685 315.763 318.843 313.843 322 311.934 325.413 311.24 327.818 311.413 329.021 311.483 329.981 311.703 330.617 311.923 330.941 312.015 331.173 312.131 331.335 312.2 331.497 312.27 331.578 312.316 331.578 312.328Z" fill="#EB996E" transform="matrix(1 0 0 1.00034 0 -48.0003)"/><path d="M347.529 337.311 257.784 337.311C255.234 337.314 253.135 335.302 253.03 332.754L250.335 270.988C250.22 268.282 252.383 266.015 255.089 266.015L350.051 266.015C352.757 266.015 354.92 268.271 354.816 270.977L352.294 332.754C352.19 335.299 350.085 337.311 347.529 337.311Z" fill="#655E25" transform="matrix(1 0 0 1.00034 0 -48.0003)"/><path d="M311.639 302.806C311.639 307.881 307.535 311.983 302.461 311.983 297.386 311.983 293.283 307.881 293.283 302.806 293.283 297.732 297.386 293.628 302.461 293.628 307.535 293.628 311.639 297.753 311.639 302.806Z" fill="#FFFFFF" transform="matrix(1 0 0 1.00034 0 -48.0003)"/><path d="M311.291 172.211 319.388 172.211 319.388 206.91 311.291 206.91Z" fill="#F8AE9D" transform="matrix(1 0 0 1.00034 0 -48.0003)"/><path d="M314.469 141.206C313.01 143.088 310.437 143.503 308.318 143.876 305.469 144.376 304.059 145.418 302.58 148.215 301.643 150.002 300.707 151.959 299.031 152.927 297.668 153.717 297.718 151.702 297.502 150.142 297.482 150.004 297.454 149.867 297.418 149.732 297.088 148.486 295.763 148.699 295.374 149.927 295.019 151.033 294.26 151.969 293.293 152.491 293.135 152.576 292.968 152.65 292.8 152.618 292.574 152.586 292.397 152.374 292.249 152.182 291.939 151.781 291.631 151.272 291.313 150.733 290.268 148.961 288.289 149.594 287.122 151.289 286.393 152.342 285.525 153.427 284.332 153.671 283.948 153.756 283.465 153.692 283.287 153.32 283.06 152.863 283.415 152.406 283.356 151.938 283.307 151.501 283.119 151.31 282.912 150.938 282.1 149.493 280.241 149.441 279.098 150.641 278.303 151.475 277.474 152.277 276.613 153.044 276.248 153.363 275.715 153.682 275.351 153.363 275.154 153.192 275.105 152.906 275.065 152.629 274.858 151.278 274.661 149.927 274.454 148.577 274.336 147.821 273.931 146.832 273.241 147.024 272.906 147.12 272.709 147.471 272.522 147.789 272.295 148.194 268.243 152.799 268.165 152.448 267.533 149.832 266.242 147.449 265.611 144.832 261.53 127.996 279.64 114.456 293.471 114.382 296.546 114.361 299.357 114.411 302.344 115.123 305.528 115.889 308.889 117.105 311.778 118.817 315.83 121.21 318.896 125.56 318.107 130.751" fill="#655E25" transform="matrix(1 0 0 1.00034 0 -48.0003)"/><path d="M307.195 135.514C305.16 137.749 304.621 140.893 304.432 143.863 304.152 148.342 304.531 152.995 306.666 156.97 307.275 158.103 307.724 163.703 308.662 163.394 308.961 163.298 308.911 158.954 309.699 156.612 310.916 152.985 316.523 151.602 319.047 153.895 323.078 157.541 320.713 161.972 319.376 164.729 318.578 166.393 317.311 168.26 317.091 170.021 316.822 172.275 316.743 180.488 318.259 182.403 319.526 184.009 320.873 176.25 322.02 174.722 330.51 163.336 338.651 134.344 324.155 128.056 321.95 127.098 315.146 126.605 313.081 127.823" fill="#655E25" transform="matrix(1 0 0 1.00034 0 -48.0003)"/><path d="M372.344 65.3679 370.043 65.3679C369.487 65.3679 369.039 64.915 369.039 64.3633L369.039 62.0629C369.039 61.5067 369.491 61.0584 370.043 61.0584L372.344 61.0584C372.898 61.0605 373.346 61.5091 373.348 62.0629L373.348 64.3633C373.35 64.9163 372.903 65.3661 372.35 65.3679 372.348 65.3679 372.346 65.3679 372.344 65.3679ZM364.367 65.3679 362.066 65.3679C361.512 65.3657 361.064 64.9171 361.062 64.3633L361.062 62.0629C361.062 61.5067 361.515 61.0584 362.066 61.0584L364.367 61.0584C364.921 61.0605 365.369 61.5091 365.371 62.0629L365.371 64.3633C365.369 64.9171 364.921 65.3657 364.367 65.3679ZM356.385 65.3679 354.084 65.3679C353.53 65.3657 353.082 64.9171 353.08 64.3633L353.08 62.0629C353.08 61.5067 353.532 61.0584 354.084 61.0584L356.385 61.0584C356.939 61.0605 357.387 61.5091 357.389 62.0629L357.389 64.3633C357.391 64.9163 356.944 65.3661 356.391 65.3679 356.389 65.3679 356.387 65.3679 356.385 65.3679ZM348.407 65.3679 346.106 65.3679C345.552 65.3657 345.104 64.9171 345.102 64.3633L345.102 62.0629C345.102 61.5067 345.555 61.0584 346.106 61.0584L348.407 61.0584C348.964 61.0584 349.416 61.5112 349.416 62.0629L349.416 64.3633C349.41 64.9174 348.961 65.3643 348.407 65.3679ZM340.43 65.3679 338.129 65.3679C337.573 65.3679 337.121 64.915 337.121 64.3633L337.121 62.0629C337.121 61.5067 337.573 61.0584 338.129 61.0584L340.43 61.0584C340.984 61.0602 341.433 61.5089 341.435 62.0629L341.435 64.3633C341.433 64.9174 340.984 65.3661 340.43 65.3679ZM364.075 56.6697 361.774 56.6697C361.22 56.6679 360.772 56.2191 360.77 55.6651L360.77 53.3595C360.772 52.8057 361.22 52.3573 361.774 52.3556L364.075 52.3556C364.631 52.3556 365.079 52.8084 365.079 53.3595L365.079 55.6605C365.082 56.2146 364.636 56.6664 364.082 56.6696 364.079 56.6697 364.077 56.6697 364.075 56.6697ZM356.098 56.6697 353.797 56.6697C353.243 56.6675 352.794 56.2189 352.793 55.6651L352.793 53.3595C352.795 52.8059 353.243 52.3577 353.797 52.3556L356.098 52.3556C356.651 52.3577 357.099 52.8059 357.102 53.3595L357.102 55.6605C357.105 56.2142 356.659 56.666 356.105 56.6696 356.103 56.6697 356.1 56.6697 356.098 56.6697ZM348.121 56.6697 345.82 56.6697C345.263 56.6697 344.81 56.2168 344.81 55.6651L344.81 53.3595C344.81 52.8084 345.263 52.3556 345.82 52.3556L348.121 52.3556C348.674 52.3577 349.122 52.8059 349.125 53.3595L349.125 55.6605C349.125 56.2168 348.672 56.6697 348.121 56.6697ZM356.385 74.7127 354.084 74.7127C353.53 74.7105 353.082 74.2619 353.08 73.7081L353.08 71.4077C353.08 70.8515 353.532 70.4032 354.084 70.4032L356.385 70.4032C356.939 70.4053 357.387 70.8539 357.389 71.4077L357.389 73.7081C357.39 74.2615 356.943 74.7112 356.389 74.7127 356.388 74.7127 356.386 74.7127 356.385 74.7127ZM348.407 74.7127 346.106 74.7127C345.552 74.7105 345.104 74.2619 345.102 73.7081L345.102 71.4077C345.102 70.8515 345.555 70.4032 346.106 70.4032L348.407 70.4032C348.964 70.4032 349.416 70.856 349.416 71.4077L349.416 73.7081C349.41 74.2622 348.961 74.7092 348.407 74.7127Z" fill="#E1E4E5" fill-rule="evenodd" transform="matrix(1 0 0 1.00034 0 -48.0003)"/><path d="M471.854 334.421C473.662 334.421 475.127 335.886 475.127 337.693L475.127 337.693C475.127 339.501 473.662 340.966 471.854 340.966L133.507 340.966C131.699 340.966 130.234 339.501 130.234 337.693L130.234 337.693C130.234 335.886 131.699 334.421 133.507 334.421Z" fill="#E1E4E5" transform="matrix(1 0 0 1.00034 0 -48.0003)"/><path d="M454.937 256.905C455.566 256.276 456.586 256.276 457.215 256.905L457.216 256.906C457.845 257.535 457.845 258.555 457.216 259.184L439.941 276.465C439.312 277.094 438.292 277.094 437.663 276.465L437.662 276.465C437.034 275.836 437.034 274.816 437.662 274.186Z" fill="#E1E4E5"/><path d="M453.247 269.278C453.876 268.649 454.895 268.649 455.524 269.278L455.525 269.278C456.154 269.907 456.154 270.928 455.525 271.557L450.543 276.541C449.914 277.17 448.894 277.17 448.265 276.541L448.264 276.54C447.636 275.911 447.635 274.891 448.264 274.262Z" fill="#E1E4E5"/></g></svg>